<?xml version="1.0" encoding="UTF-8"?>
<!-- Generator: visioncortex VTracer 0.6.4 -->
<svg version="1.1" xmlns="http://www.w3.org/2000/svg" width="589" height="103">
<path d="M0 0 C0.99 0.66 1.98 1.32 3 2 C4.299375 1.95875 5.59875 1.9175 6.9375 1.875 C9.97804772 1.81340511 10.82099118 1.88811949 13.5 3.5625 C15.49304622 6.8012001 15 9.2417659 15 13 C16.80495512 15.71463073 16.80495512 15.71463073 19 18 C21.41680445 21.62520667 21.50982459 24.70290706 21 29 C17.72926669 36.04465635 11.56780661 39.67774572 4.44976807 42.33380127 C-3.62443352 44.52952866 -12.43218166 43.89656725 -20.72363281 43.74780273 C-24.25690191 43.68738197 -27.78659777 43.68625668 -31.3203125 43.69335938 C-33.59377622 43.67795702 -35.86722019 43.65919299 -38.140625 43.63671875 C-39.18252991 43.63540451 -40.22443481 43.63409027 -41.2979126 43.63273621 C-50.93303879 43.4169029 -58.54124588 40.88959786 -65.72265625 34.3671875 C-68.35990436 31.54444488 -68.27319743 28.85352234 -68.21875 25.08984375 C-67.75881126 20.69578616 -65.59767395 17.68068422 -62.75 14.4375 C-60.67585383 12.14421274 -60.67585383 12.14421274 -61.375 9.4375 C-61.58125 8.633125 -61.7875 7.82875 -62 7 C-61.5 4.75 -61.5 4.75 -60 3 C-56.6875 2.3125 -56.6875 2.3125 -53 2 C-48.89874753 1.4741984 -45.83968922 0.00593779 -42.2578125 -1.96484375 C-28.88237378 -8.09718157 -12.92907366 -6.20144522 0 0 Z M-9 23 C-8.67 25.31 -8.34 27.62 -8 30 C-3.36498163 31.16009399 -3.36498163 31.16009399 1 29.875 C2.2049911 27.98629411 2.2049911 27.98629411 1.9375 25.5 C0.82057784 22.52154089 -0.271748 21.57081176 -3 20 C-5.76223278 20 -6.89281454 21.31425163 -9 23 Z M-46.25 21.0625 C-48.29179348 22.94969914 -48.29179348 22.94969914 -48.375 26.0625 C-48.28930236 29.11861241 -48.28930236 29.11861241 -46 31 C-43.04253508 31.58345476 -43.04253508 31.58345476 -40 31 C-38.0645852 28.60943058 -38.0645852 28.60943058 -37 26 C-38.79522209 22.3670039 -38.79522209 22.3670039 -41.9375 20 C-44.10387347 19.85321658 -44.10387347 19.85321658 -46.25 21.0625 Z " fill="#1A1A1A" transform="translate(183,24)"/>
<path d="M0 0 C1.43489809 -0.13536774 2.87347107 -0.23217143 4.3125 -0.3125 C5.11300781 -0.37050781 5.91351563 -0.42851562 6.73828125 -0.48828125 C9 0 9 0 10.640625 2.1015625 C12.1177082 5.25097553 13.31305308 8.3952669 14.4375 11.6875 C15.87869931 15.83041027 17.33728826 19.94082924 19 24 C20.66284003 28.06356249 22.15568509 32.17521854 23.625 36.3125 C23.85445312 36.95767578 24.08390625 37.60285156 24.3203125 38.26757812 C24.8810818 39.84474179 25.44066291 41.42232784 26 43 C27.47688251 39.1270103 28.95178472 35.25327336 30.42504883 31.37890625 C30.9238868 30.06783932 31.42321607 28.75695919 31.9230957 27.44628906 C35.39697179 18.33654754 38.75733522 9.19481944 42 0 C45.3 0 48.6 0 52 0 C51.44002341 6.51980861 49.24719465 12.10054241 46.8515625 18.15625 C46.43836761 19.21734985 46.02517273 20.27844971 45.59945679 21.3717041 C44.28160992 24.75057564 42.95332821 28.12523721 41.625 31.5 C40.73892414 33.76927397 39.85350059 36.03880276 38.96875 38.30859375 C32.06295298 55.9870961 32.06295298 55.9870961 29 63 C27.02 63 25.04 63 23 63 C17.80497774 50.04001692 12.61702694 37.07721423 7.50561523 24.08398438 C6.78037262 22.24460334 6.05207563 20.40642427 5.32104492 18.56933594 C4.24712921 15.86933972 3.18306141 13.16565148 2.12109375 10.4609375 C1.79104843 9.63717621 1.46100311 8.81341492 1.12095642 7.96469116 C0.35493173 5.99845244 -0.33082517 4.00127299 -1 2 C-0.67 1.34 -0.34 0.68 0 0 Z " fill="#282828" transform="translate(223,22)"/>
<path d="M0 0 C5.0262391 3.07728924 8.4834678 7.08521525 10.0625 12.875 C10.55597262 16.1994471 10.98156318 19.51300886 11.0625 22.875 C10.0625 23.875 10.0625 23.875 7.10327148 23.98852539 C5.80977783 23.98328857 4.51628418 23.97805176 3.18359375 23.97265625 C2.15360008 23.97053383 2.15360008 23.97053383 1.10279846 23.96836853 C-1.09817801 23.96275479 -3.29905409 23.95020007 -5.5 23.9375 C-6.98893083 23.93248676 -8.47786324 23.92792355 -9.96679688 23.92382812 C-13.62373075 23.91278093 -17.28060558 23.89550713 -20.9375 23.875 C-18.87234656 28.45236323 -18.87234656 28.45236323 -15.25 31.8125 C-10.838809 33.22741032 -8.46234833 32.89673994 -3.9375 31.875 C-3.215625 31.318125 -2.49375 30.76125 -1.75 30.1875 C-1.151875 29.754375 -0.55375 29.32125 0.0625 28.875 C2.6875 29.4375 2.6875 29.4375 5.0625 30.875 C6.375 33 6.375 33 7.0625 34.875 C0.51763146 40.5472194 -3.65482414 41.23361503 -12.4140625 41.15234375 C-18.54962169 40.66938953 -22.64769846 38.5393616 -26.8125 34.0625 C-31.17804956 27.51417565 -31.66125346 20.94914109 -30.578125 13.35546875 C-29.41072412 8.09427693 -27.95079205 5.37273217 -23.4375 2.3125 C-16.46689805 -1.78853748 -7.73231581 -2.90175207 0 0 Z M-17.9375 8.875 C-20.44857633 11.46707879 -20.9375 12.22373712 -20.9375 15.875 C-13.6775 15.875 -6.4175 15.875 1.0625 15.875 C-0.59386418 9.8816091 -0.59386418 9.8816091 -4.9375 6.875 C-10.1353207 5.25790023 -13.22328028 6.29552128 -17.9375 8.875 Z " fill="#444444" transform="translate(460.9375,44.125)"/>
<path d="M0 0 C2.97 0 5.94 0 9 0 C9.33 1.32 9.66 2.64 10 4 C10.7425 3.34 11.485 2.68 12.25 2 C16.91590804 -1.12916505 22.61771807 -0.8040825 28 0 C32.99819447 2.50982297 36.20895557 5.62686671 38 11 C38.08397157 13.35680213 38.10728187 15.71594081 38.09765625 18.07421875 C38.0962413 18.7580513 38.09482635 19.44188385 38.09336853 20.1464386 C38.08777876 22.32683722 38.07522822 24.50713251 38.0625 26.6875 C38.05748367 28.16731622 38.052921 29.64713406 38.04882812 31.12695312 C38.03781271 34.75133557 38.02055512 38.3756577 38 42 C35.03 42 32.06 42 29 42 C28.98541748 41.17798096 28.97083496 40.35596191 28.95581055 39.5090332 C28.88123667 35.77638677 28.78460488 32.04462541 28.6875 28.3125 C28.66494141 27.01892578 28.64238281 25.72535156 28.61914062 24.39257812 C28.5659668 22.52182617 28.5659668 22.52182617 28.51171875 20.61328125 C28.48553467 19.46641846 28.45935059 18.31955566 28.43237305 17.13793945 C27.95503898 13.67369624 27.14250467 11.74893873 25 9 C20.9783565 7.78591894 18.69029903 7.77858333 14.6875 9.0625 C11.18858509 11.58497354 10.96567123 12.78534147 10 17 C9.79102872 21.10829427 9.85726159 25.20088958 9.9375 29.3125 C9.97175643 31.49603041 10.00193691 33.67962994 10.02734375 35.86328125 C10.04531006 36.82532471 10.06327637 37.78736816 10.08178711 38.77856445 C10 41 10 41 9 42 C6.03 42 3.06 42 0 42 C0 28.14 0 14.28 0 0 Z " fill="#252525" transform="translate(384,43)"/>
<path d="M0 0 C2.97 0 5.94 0 9 0 C9 3.96 9 7.92 9 12 C12.3 12 15.6 12 19 12 C19 14.64 19 17.28 19 20 C15.7 20 12.4 20 9 20 C9.11368002 23.60485338 9.24043564 27.20841799 9.375 30.8125 C9.4059375 31.83666016 9.436875 32.86082031 9.46875 33.91601562 C9.50742187 34.89892578 9.54609375 35.88183594 9.5859375 36.89453125 C9.6173584 37.80050049 9.6487793 38.70646973 9.68115234 39.63989258 C9.86027919 42.26525392 9.86027919 42.26525392 12 45 C15.56769552 45.73606499 15.56769552 45.73606499 19 46 C19.04241723 48.33294775 19.04092937 50.66702567 19 53 C17.35254404 54.64745596 15.44664549 54.1709616 13.1875 54.1875 C12.31480469 54.20167969 11.44210937 54.21585938 10.54296875 54.23046875 C6.37236696 53.85248794 4.68312925 52.71946591 1.796875 49.6796875 C-1.2618964 44.75632258 -0.68043304 38.72830271 -0.75 33.125 C-0.77964844 31.9596875 -0.80929687 30.794375 -0.83984375 29.59375 C-0.91028601 26.72909805 -0.96311113 23.86524795 -1 21 C-2.32 20.67 -3.64 20.34 -5 20 C-5 17.36 -5 14.72 -5 12 C-3.35 12 -1.7 12 0 12 C0 8.04 0 4.08 0 0 Z " fill="#272727" transform="translate(305,31)"/>
<path d="M0 0 C1.91015625 0.23046875 1.91015625 0.23046875 3.91015625 2.23046875 C4.4721875 1.90304688 5.03421875 1.575625 5.61328125 1.23828125 C8.17875589 0.11261381 9.87857902 0.02365765 12.66015625 0.10546875 C13.459375 0.12351563 14.25859375 0.1415625 15.08203125 0.16015625 C15.6853125 0.18335938 16.28859375 0.2065625 16.91015625 0.23046875 C17.70968763 3.51743108 18.00674561 4.94070067 16.91015625 8.23046875 C16.00523437 8.23433594 16.00523437 8.23433594 15.08203125 8.23828125 C14.2828125 8.27695312 13.48359375 8.315625 12.66015625 8.35546875 C11.87125 8.37867188 11.08234375 8.401875 10.26953125 8.42578125 C7.49921121 9.3706255 6.1787167 10.57826063 4.67822266 13.09082031 C2.91617028 17.99947481 3.2647037 23.38795094 3.22265625 28.54296875 C3.18078982 30.91413084 3.13541724 33.28523456 3.0859375 35.65625 C3.07473877 36.70208252 3.06354004 37.74791504 3.05200195 38.82543945 C2.91015625 41.23046875 2.91015625 41.23046875 1.91015625 42.23046875 C0.39087587 42.30226839 -1.13151857 42.31438882 -2.65234375 42.29296875 C-3.47863281 42.28394531 -4.30492187 42.27492187 -5.15625 42.265625 C-5.79433594 42.25402344 -6.43242187 42.24242187 -7.08984375 42.23046875 C-7.11449013 36.40975253 -7.13267805 30.58906641 -7.14477539 24.76831055 C-7.14981642 22.78653434 -7.15664913 20.80476186 -7.1652832 18.82299805 C-7.1773589 15.98094766 -7.1830742 13.13894628 -7.1875 10.296875 C-7.19266129 9.40521133 -7.19782257 8.51354767 -7.20314026 7.59486389 C-7.20333552 5.47306274 -7.15194405 3.35136095 -7.08984375 1.23046875 C-5.19495423 -0.66442077 -2.51845229 0.05027763 0 0 Z " fill="#343434" transform="translate(340.08984375,42.76953125)"/>
<path d="M0 0 C1.32 0 2.64 0 4 0 C4 0.99 4 1.98 4 3 C11.26 3 18.52 3 26 3 C26 3.33 26 3.66 26 4 C18.41 4 10.82 4 3 4 C3 5.98 3 7.96 3 10 C13.56 10 24.12 10 35 10 C35 10.33 35 10.66 35 11 C24.77 11 14.54 11 4 11 C6.34002035 16.8400582 6.34002035 16.8400582 9.6875 18.9375 C14.098691 20.35241032 16.47515167 20.02173994 21 19 C21.721875 18.443125 22.44375 17.88625 23.1875 17.3125 C23.785625 16.879375 24.38375 16.44625 25 16 C27.625 16.5625 27.625 16.5625 30 18 C31.3125 20.125 31.3125 20.125 32 22 C25.45513146 27.6722194 21.28267586 28.35861503 12.5234375 28.27734375 C6.38787831 27.79438953 2.28980154 25.6643616 -1.875 21.1875 C-5.83282869 15.25075697 -6.24241357 9.90878679 -6 3 C-5.195625 2.690625 -4.39125 2.38125 -3.5625 2.0625 C-1.10919595 1.23664655 -1.10919595 1.23664655 0 0 Z " fill="#404040" transform="translate(436,57)"/>
<path d="M0 0 C2.97 0 5.94 0 9 0 C9 13.86 9 27.72 9 42 C6.03 42 3.06 42 0 42 C0 28.14 0 14.28 0 0 Z " fill="#262626" transform="translate(364,43)"/>
<path d="M0 0 C2.97 0 5.94 0 9 0 C9 13.86 9 27.72 9 42 C6.03 42 3.06 42 0 42 C0 28.14 0 14.28 0 0 Z " fill="#292929" transform="translate(282,43)"/>
<path d="M0 0 C2.31 0 4.62 0 7 0 C7 2.31 7 4.62 7 7 C6.01 7.495 6.01 7.495 5 8 C5.4844458 8.52561523 5.9688916 9.05123047 6.46801758 9.59277344 C8.4486127 12.70491175 8.42822729 14.84200055 8.51171875 18.515625 C8.54716797 19.76601563 8.58261719 21.01640625 8.61914062 22.3046875 C8.64169922 23.60664062 8.66425781 24.90859375 8.6875 26.25 C8.73874023 28.22613281 8.73874023 28.22613281 8.79101562 30.2421875 C8.87350706 33.49470678 8.9426567 36.74695596 9 40 C6.03 40 3.06 40 0 40 C0 26.8 0 13.6 0 0 Z " fill="#131313" transform="translate(385,44)"/>
<path d="M0 0 C0.66 0 1.32 0 2 0 C4.59417346 5.18834693 4.35812325 8.58123254 5 15 C-5.89 15 -16.78 15 -28 15 C-29 11 -29 11 -28 9 C-20.41 9 -12.82 9 -5 9 C-5 6.69 -5 4.38 -5 2 C-4.01 1.67 -3.02 1.34 -2 1 C-1.34 1.33 -0.68 1.66 0 2 C0 1.34 0 0.68 0 0 Z " fill="#171717" transform="translate(467,52)"/>
<path d="M0 0 C0.79148438 -0.04898437 1.58296875 -0.09796875 2.3984375 -0.1484375 C4.625 0.375 4.625 0.375 6.25 2.4609375 C7.78606995 5.71635847 9.05680026 8.97840687 10.25 12.375 C10.67539063 13.57125 11.10078125 14.7675 11.5390625 16 C12.44033859 18.80108829 13.13150327 21.47981917 13.625 24.375 C13.191875 23.776875 12.75875 23.17875 12.3125 22.5625 C10.85038761 20.66716913 9.35449773 19.0221407 7.625 17.375 C7.625 18.035 7.625 18.695 7.625 19.375 C6.965 19.375 6.305 19.375 5.625 19.375 C5.295 21.355 4.965 23.335 4.625 25.375 C2.83496089 22.68994133 1.80387291 20.480065 0.6796875 17.48828125 C0.32519531 16.55048828 -0.02929688 15.61269531 -0.39453125 14.64648438 C-0.75933594 13.67001953 -1.12414062 12.69355469 -1.5 11.6875 C-2.05880859 10.20540039 -2.05880859 10.20540039 -2.62890625 8.69335938 C-3.54765019 6.2551543 -4.46287234 3.81568627 -5.375 1.375 C-3.7961316 -0.2038684 -2.18207663 0.09180258 0 0 Z " fill="#2A2A2A" transform="translate(227.375,21.625)"/>
<path d="M0 0 C4.67692308 1.47692308 4.67692308 1.47692308 6.3125 4.125 C6.539375 4.74375 6.76625 5.3625 7 6 C1.45605576 10.80475168 -1.45245537 12.14072405 -9 12.125 C-10.2375 12.12757812 -11.475 12.13015625 -12.75 12.1328125 C-16 12 -16 12 -19 11 C-18.67 9.02 -18.34 7.04 -18 5 C-17.35933594 4.96261719 -16.71867187 4.92523438 -16.05859375 4.88671875 C-7.36321088 4.29938219 -7.36321088 4.29938219 0 0 Z " fill="#232323" transform="translate(461,73)"/>
<path d="M0 0 C2.58094937 2.82291337 3.01389559 4.30522028 2.9375 8.125 C2 11 2 11 0.5 12.9375 C-3.37143724 14.58286083 -6.94095964 13.71987254 -11 13 C-13.18181818 6.81818182 -13.18181818 6.81818182 -12.375 3.1875 C-9.23491435 -1.80809081 -5.40883305 -1.47513629 0 0 Z " fill="#2D2D2D" transform="translate(196,74)"/>
<path d="M0 0 C3.42115134 0.93597537 3.77245442 1.28368162 5.875 4.4375 C6.49203539 8.49230401 6.19538101 9.98119977 3.8125 13.375 C0.875 15.4375 0.875 15.4375 -2.75 15.5 C-6.125 14.4375 -6.125 14.4375 -8.125 12.8125 C-9.59826389 9.31349825 -9.09614747 7.06311724 -8.125 3.4375 C-5.79883951 -0.3774032 -4.19359523 -0.89808391 0 0 Z " fill="#333333" transform="translate(133.125,73.5625)"/>
<path d="M0 0 C2.97 0 5.94 0 9 0 C9 3.96 9 7.92 9 12 C12.3 12 15.6 12 19 12 C19 12.33 19 12.66 19 13 C17.2709226 13.02725341 15.54171824 13.04650987 13.8125 13.0625 C12.36810547 13.07990234 12.36810547 13.07990234 10.89453125 13.09765625 C8.14423487 13.00486622 5.67520409 12.62111685 3 12 C2.01 14.97 1.02 17.94 0 21 C-1.65 20.67 -3.3 20.34 -5 20 C-5 17.36 -5 14.72 -5 12 C-3.35 12 -1.7 12 0 12 C0 8.04 0 4.08 0 0 Z " fill="#313131" transform="translate(305,31)"/>
<path d="M0 0 C2.97 0 5.94 0 9 0 C9.33 1.32 9.66 2.64 10 4 C10.7425 3.34 11.485 2.68 12.25 2 C16.94531961 -1.22094389 22.55789549 -0.3170158 28 0 C28 0.33 28 0.66 28 1 C25.36 1 22.72 1 20 1 C19.566875 1.9590625 19.566875 1.9590625 19.125 2.9375 C18 5 18 5 16 6 C16.66 6.66 17.32 7.32 18 8 C16.576875 8.556875 16.576875 8.556875 15.125 9.125 C11.74446192 10.73995905 11.74446192 10.73995905 10.625 14.1875 C10.41875 15.115625 10.2125 16.04375 10 17 C9.731875 16.4225 9.46375 15.845 9.1875 15.25 C7.98280141 12.9674132 6.59201885 11.0262058 5 9 C5.33 8.34 5.66 7.68 6 7 C6.66 7.33 7.32 7.66 8 8 C8 5.69 8 3.38 8 1 C5.69 1 3.38 1 1 1 C1 14.2 1 27.4 1 41 C3.64 41 6.28 41 9 41 C9 41.33 9 41.66 9 42 C6.03 42 3.06 42 0 42 C0 28.14 0 14.28 0 0 Z " fill="#696969" transform="translate(384,43)"/>
<path d="M0 0 C14.52 0 29.04 0 44 0 C34.68844611 6.2077026 19.347713 4.95123683 8.74951172 2.92260742 C5.82327995 2.32287889 2.90946855 1.67605908 0 1 C0 0.67 0 0.34 0 0 Z " fill="#3A3A3A" transform="translate(138,68)"/>
<path d="M0 0 C0.75410156 0.09990234 1.50820313 0.19980469 2.28515625 0.30273438 C4.14917753 0.55048404 6.01219288 0.80578057 7.875 1.0625 C7.875 3.0425 7.875 5.0225 7.875 7.0625 C4.245 7.0625 0.615 7.0625 -3.125 7.0625 C-3.455 8.0525 -3.785 9.0425 -4.125 10.0625 C-4.785 8.7425 -5.445 7.4225 -6.125 6.0625 C-7.445 7.3825 -8.765 8.7025 -10.125 10.0625 C-11.04800522 7.47808539 -11.32032222 6.47755971 -10.125 3.9375 C-9.795 3.31875 -9.465 2.7 -9.125 2.0625 C-9.455 1.4025 -9.785 0.7425 -10.125 0.0625 C-6.87932383 -1.56033808 -3.48660376 -0.48475234 0 0 Z " fill="#101010" transform="translate(316.125,42.9375)"/>
<path d="M0 0 C0.33 0 0.66 0 1 0 C1 33.99 1 67.98 1 103 C0.67 103 0.34 103 0 103 C0 69.01 0 35.02 0 0 Z " fill="#D9D9D9" transform="translate(568,0)"/>
<path d="M0 0 C3.2719156 1.37420455 5.026924 2.45911664 7.125 5.3125 C6.875 7.5625 6.875 7.5625 6.125 9.3125 C4.805 9.3125 3.485 9.3125 2.125 9.3125 C1.465 10.6325 0.805 11.9525 0.125 13.3125 C-0.225625 12.52875 -0.57625 11.745 -0.9375 10.9375 C-3.49165844 7.47702728 -5.75722494 7.16713256 -9.875 6.3125 C-8.885 5.6525 -7.895 4.9925 -6.875 4.3125 C-6.19231862 2.98729497 -5.5242959 1.65437818 -4.875 0.3125 C-2.875 -0.6875 -2.875 -0.6875 0 0 Z " fill="#2E2E2E" transform="translate(460.875,44.6875)"/>
<path d="M0 0 C3.15467773 0.76943359 4.58588104 1.32952169 6.3125 4.125 C6.539375 4.74375 6.76625 5.3625 7 6 C3.00386479 9.71069698 0.62917348 11.59791618 -5 12 C-4.34 11.67 -3.68 11.34 -3 11 C-3.185625 10.443125 -3.37125 9.88625 -3.5625 9.3125 C-4.09028722 6.52276756 -3.85326318 4.70200008 -3 2 C-2.01 1.34 -1.02 0.68 0 0 Z " fill="#333333" transform="translate(461,73)"/>
<path d="M0 0 C2.4375 0.4375 2.4375 0.4375 4.4375 2.4375 C4.6875 5.4375 4.6875 5.4375 4.4375 8.4375 C2.4375 10.4375 2.4375 10.4375 0 10.875 C-2.5625 10.4375 -2.5625 10.4375 -4.375 7.9375 C-4.766875 7.1125 -5.15875 6.2875 -5.5625 5.4375 C-3.24265926 0.55362475 -3.24265926 0.55362475 0 0 Z " fill="#303030" transform="translate(286.5625,23.5625)"/>
<path d="M0 0 C2.4375 0.4375 2.4375 0.4375 4.4375 2.4375 C4.6875 5.4375 4.6875 5.4375 4.4375 8.4375 C2.4375 10.4375 2.4375 10.4375 0 10.875 C-2.5625 10.4375 -2.5625 10.4375 -4.375 7.9375 C-4.766875 7.1125 -5.15875 6.2875 -5.5625 5.4375 C-3.24265926 0.55362475 -3.24265926 0.55362475 0 0 Z " fill="#3A3A3A" transform="translate(368.5625,23.5625)"/>
<path d="M0 0 C1.23556641 0.01740234 1.23556641 0.01740234 2.49609375 0.03515625 C3.32238281 0.04417969 4.14867187 0.05320312 5 0.0625 C5.63808594 0.07410156 6.27617187 0.08570312 6.93359375 0.09765625 C7.8678302 3.10797369 7.97809286 3.96415893 6.93359375 7.09765625 C3.93359375 9.09765625 3.93359375 9.09765625 -0.06640625 9.09765625 C-1.05640625 6.45765625 -2.04640625 3.81765625 -3.06640625 1.09765625 C-2.06640625 0.09765625 -2.06640625 0.09765625 0 0 Z " fill="#3D3D3D" transform="translate(225.06640625,21.90234375)"/>
<path d="M0 0 C3.3 0 6.6 0 10 0 C9.67 2.31 9.34 4.62 9 7 C8.01 7.33 7.02 7.66 6 8 C5.01 7.34 4.02 6.68 3 6 C1.02 6.99 1.02 6.99 -1 8 C-0.67 5.36 -0.34 2.72 0 0 Z " fill="#3A3A3A" transform="translate(265,22)"/>
<path d="M0 0 C0.33 0.66 0.66 1.32 1 2 C0.01 2.495 0.01 2.495 -1 3 C-1.66 4.32 -2.32 5.64 -3 7 C-5.97 7 -8.94 7 -12 7 C-12 3 -12 3 -11 1 C-7.43545584 -0.37097852 -3.76644005 -0.07243154 0 0 Z " fill="#171717" transform="translate(457,43)"/>
<path d="M0 0 C1.32 1.32 2.64 2.64 4 4 C3.01 4.66 2.02 5.32 1 6 C1.33 6.99 1.66 7.98 2 9 C0.88625 9.474375 -0.2275 9.94875 -1.375 10.4375 C-3.26710994 11.25306463 -5.15712709 12.07856355 -7 13 C-6.68554487 10.66404762 -6.3496418 8.33094534 -6 6 C-5.9175 5.236875 -5.835 4.47375 -5.75 3.6875 C-5 2 -5 2 -2.4375 0.75 C-1.633125 0.5025 -0.82875 0.255 0 0 Z " fill="#111111" transform="translate(438,48)"/>
<path d="M0 0 C3 1 3 1 4.75 3.875 C6 7 6 7 5 10 C3.68 9.67 2.36 9.34 1 9 C0.67 9.66 0.34 10.32 0 11 C-0.99 10.67 -1.98 10.34 -3 10 C-3.125 4.25 -3.125 4.25 -2 2 C-1.34 2 -0.68 2 0 2 C0 1.34 0 0.68 0 0 Z " fill="#141414" transform="translate(235,39)"/>
<path d="M0 0 C0.04241723 2.33294775 0.04092937 4.66702567 0 7 C-1 8 -1 8 -3.9375 8.1875 C-7 8 -7 8 -9 6 C-6.54625122 1.21518987 -6.54625122 1.21518987 -3.9375 0.1875 C-2 0 -2 0 0 0 Z " fill="#1C1C1C" transform="translate(324,77)"/>
<path d="M0 0 C1.65 1.65 3.3 3.3 5 5 C4.67 5.66 4.34 6.32 4 7 C3.01 7 2.02 7 1 7 C0.34 8.32 -0.32 9.64 -1 11 C-1.33 10.34 -1.66 9.68 -2 9 C-2.66 8.67 -3.32 8.34 -4 8 C-3.40138258 5.64828869 -2.73075648 3.3140622 -2 1 C-1.34 0.67 -0.68 0.34 0 0 Z " fill="#101010" transform="translate(259,46)"/>
<path d="M0 0 C0.94875 0.04125 1.8975 0.0825 2.875 0.125 C1.54166667 2.79166667 0.20833333 5.45833333 -1.125 8.125 C-2.445 8.125 -3.765 8.125 -5.125 8.125 C-5.25 5.25 -5.25 5.25 -5.125 2.125 C-3.125 0.125 -3.125 0.125 0 0 Z " fill="#191919" transform="translate(130.125,74.875)"/>
<path d="M0 0 C0.33 0.66 0.66 1.32 1 2 C2.32 2 3.64 2 5 2 C4.34 4.31 3.68 6.62 3 9 C-0.875 7.25 -0.875 7.25 -2 5 C-3.32 5 -4.64 5 -6 5 C-5.34 3.68 -4.68 2.36 -4 1 C-4 1.66 -4 2.32 -4 3 C-2.68 2.01 -1.36 1.02 0 0 Z " fill="#2B2B2B" transform="translate(268,27)"/>
<path d="M0 0 C1.65 1.32 3.3 2.64 5 4 C4.67 5.32 4.34 6.64 4 8 C2.68 8 1.36 8 0 8 C-0.66 9.32 -1.32 10.64 -2 12 C-3.125 9.6875 -3.125 9.6875 -4 7 C-3.34 6.01 -2.68 5.02 -2 4 C-1.34 4 -0.68 4 0 4 C0 2.68 0 1.36 0 0 Z " fill="#383838" transform="translate(463,46)"/>
<path d="M0 0 C3 3.625 3 3.625 3 7 C2.84872598 8.56406528 2.68097478 10.12659252 2.5 11.6875 C2.4071875 12.49574219 2.314375 13.30398437 2.21875 14.13671875 C2.1465625 14.75160156 2.074375 15.36648437 2 16 C1.70351563 15.38640625 1.40703125 14.7728125 1.1015625 14.140625 C-0.05882978 11.88567831 -1.43586289 9.99071996 -3 8 C-2.67 7.34 -2.34 6.68 -2 6 C-1.34 6.33 -0.68 6.66 0 7 C0 4.69 0 2.38 0 0 Z " fill="#2A2A2A" transform="translate(392,44)"/>
<path d="M0 0 C0.66 0 1.32 0 2 0 C5.07692308 6.4 5.07692308 6.4 4.6875 9.4375 C4.460625 9.953125 4.23375 10.46875 4 11 C3.54625 10.030625 3.0925 9.06125 2.625 8.0625 C1.34213779 4.92920418 1.34213779 4.92920418 -1 4 C-1 4.66 -1 5.32 -1 6 C-1.66 6 -2.32 6 -3 6 C-3.33 7.98 -3.66 9.96 -4 12 C-4.66 11.01 -5.32 10.02 -6 9 C-4.4722133 5.56247993 -2.49818944 2.81046312 0 0 Z " fill="#474747" transform="translate(236,35)"/>
<path d="M0 0 C1.9375 0.625 1.9375 0.625 4 2 C4.9375 4.8125 4.9375 4.8125 5 8 C3.5625 10.875 3.5625 10.875 2 13 C1.855625 12.38125 1.71125 11.7625 1.5625 11.125 C1.06847775 8.96741678 1.06847775 8.96741678 0 7 C0.33 6.01 0.66 5.02 1 4 C0.61067144 1.85744207 0.61067144 1.85744207 0 0 Z " fill="#474747" transform="translate(194,74)"/>
<path d="M0 0 C3.63 0 7.26 0 11 0 C10.67 0.66 10.34 1.32 10 2 C3.0514958 3.33625081 -3.94870872 3.09674028 -11 3 C-11 2.67 -11 2.34 -11 2 C-7.37 2 -3.74 2 0 2 C0 1.34 0 0.68 0 0 Z " fill="#6C6C6C" transform="translate(164,69)"/>
<path d="M0 0 C0.99 0.33 1.98 0.66 3 1 C3.8125 2.8125 3.8125 2.8125 4 5 C3.0625 7.25 3.0625 7.25 2 9 C2 8.01 2 7.02 2 6 C1.34 6 0.68 6 0 6 C-0.33 5.34 -0.66 4.68 -1 4 C-1.99 5.485 -1.99 5.485 -3 7 C-3.99 7 -4.98 7 -6 7 C-5.34 5.68 -4.68 4.36 -4 3 C-3.34 3 -2.68 3 -2 3 C-1.67 2.34 -1.34 1.68 -1 1 C-0.67 0.67 -0.34 0.34 0 0 Z " fill="#0E0E0E" transform="translate(192,78)"/>
<path d="M0 0 C0.99 1.485 0.99 1.485 2 3 C1.67 3.66 1.34 4.32 1 5 C3.475 5.99 3.475 5.99 6 7 C4.68 8.65 3.36 10.3 2 12 C1.855625 11.195625 1.71125 10.39125 1.5625 9.5625 C1.25864751 7.07896294 1.25864751 7.07896294 0 6 C-0.04080783 4.00041636 -0.04254356 1.99954746 0 0 Z M-1 7 C-0.34 7 0.32 7 1 7 C0.67 7.66 0.34 8.32 0 9 C-0.33 8.34 -0.66 7.68 -1 7 Z " fill="#5C5C5C" transform="translate(342,44)"/>
<path d="M0 0 C0.99 0 1.98 0 3 0 C2.25 5.75 2.25 5.75 0 8 C0 7.34 0 6.68 0 6 C-0.66 6 -1.32 6 -2 6 C-2.33 5.01 -2.66 4.02 -3 3 C-2.34 3 -1.68 3 -1 3 C-0.67 2.01 -0.34 1.02 0 0 Z " fill="#333333" transform="translate(257,62)"/>
<path d="M0 0 C0.99 0.99 1.98 1.98 3 3 C-0.75 6 -0.75 6 -3 6 C-3.33 5.01 -3.66 4.02 -4 3 C-3 1 -3 1 0 0 Z " fill="#262626" transform="translate(193,58)"/>
<path d="M0 0 C-0.61875 0.04125 -1.2375 0.0825 -1.875 0.125 C-2.57625 0.41375 -3.2775 0.7025 -4 1 C-5.3045656 3.99615946 -5.3045656 3.99615946 -6 7 C-6.99 6.01 -7.98 5.02 -9 4 C-8.67 3.01 -8.34 2.02 -8 1 C-5.07175348 0.02391783 -3.04386724 -0.08226668 0 0 Z " fill="#323232" transform="translate(450,43)"/>
<path d="M0 0 C2.475 0.495 2.475 0.495 5 1 C4.67 1.66 4.34 2.32 4 3 C2.68 2.01 1.36 1.02 0 0 Z M-1 2 C0.32 2 1.64 2 3 2 C2.67 3.32 2.34 4.64 2 6 C1.01 6 0.02 6 -1 6 C-1 4.68 -1 3.36 -1 2 Z " fill="#0E0E0E" transform="translate(117,49)"/>
<path d="M0 0 C2.97 0 5.94 0 9 0 C9.33 1.65 9.66 3.3 10 5 C7.525 4.01 7.525 4.01 5 3 C5 2.67 5 2.34 5 2 C3.35 1.67 1.7 1.34 0 1 C0 0.67 0 0.34 0 0 Z " fill="#4F4F4F" transform="translate(348,43)"/>
<path d="M0 0 C1.98 0.66 3.96 1.32 6 2 C5.67 3.32 5.34 4.64 5 6 C3.68 6 2.36 6 1 6 C0.67 4.02 0.34 2.04 0 0 Z " fill="#3C3C3C" transform="translate(183,25)"/>
<path d="M0 0 C0.66 0.33 1.32 0.66 2 1 C2 1.66 2 2.32 2 3 C3.32 3.33 4.64 3.66 6 4 C6 4.66 6 5.32 6 6 C3.625 5.75 3.625 5.75 1 5 C-0.3125 2.9375 -0.3125 2.9375 -1 1 C-0.67 0.67 -0.34 0.34 0 0 Z " fill="#0F0F0F" transform="translate(251,64)"/>
<path d="M0 0 C1.32 1.32 2.64 2.64 4 4 C2.35 4.66 0.7 5.32 -1 6 C-1 5.34 -1 4.68 -1 4 C-1.66 4 -2.32 4 -3 4 C-3 3.34 -3 2.68 -3 2 C-2.01 1.34 -1.02 0.68 0 0 Z " fill="#0E0E0E" transform="translate(438,48)"/>
<path d="M0 0 C0.66 0 1.32 0 2 0 C2.6875 1.8125 2.6875 1.8125 3 4 C1.6875 5.5625 1.6875 5.5625 0 7 C-0.66 7.99 -1.32 8.98 -2 10 C-1.46274105 6.62294375 -0.88935377 3.303314 0 0 Z " fill="#575757" transform="translate(433,50)"/>
<path d="M0 0 C0.99 0 1.98 0 3 0 C3 0.66 3 1.32 3 2 C3.66 2 4.32 2 5 2 C5.33 3.32 5.66 4.64 6 6 C3.37812506 4.95125002 2.20628639 4.35068687 0.75 1.875 C0.5025 1.25625 0.255 0.6375 0 0 Z " fill="#5E5E5E" transform="translate(116,55)"/>
<path d="M0 0 C2.97 0.495 2.97 0.495 6 1 C5.67 1.66 5.34 2.32 5 3 C5.99 3.66 6.98 4.32 8 5 C5.6875 5.3125 5.6875 5.3125 3 5 C1.1875 2.5 1.1875 2.5 0 0 Z " fill="#5D5D5D" transform="translate(281,29)"/>
<path d="M0 0 C2.31 0.33 4.62 0.66 7 1 C7.33 1.99 7.66 2.98 8 4 C4.31245243 3.50168276 2.39509338 2.89932357 0 0 Z " fill="#4A4A4A" transform="translate(189,26)"/>
<path d="" fill="#EEEEEE" transform="translate(0,0)"/>
<path d="" fill="#F0F0F0" transform="translate(0,0)"/>
<path d="" fill="#EFEFEF" transform="translate(0,0)"/>
<path d="" fill="#F0F0F0" transform="translate(0,0)"/>
<path d="" fill="#EBEBEB" transform="translate(0,0)"/>
<path d="" fill="#E8E8E8" transform="translate(0,0)"/>
<path d="" fill="#E9E9E9" transform="translate(0,0)"/>
<path d="" fill="#EFEFEF" transform="translate(0,0)"/>
<path d="" fill="#EDEDED" transform="translate(0,0)"/>
<path d="" fill="#EDEDED" transform="translate(0,0)"/>
<path d="" fill="#EFEFEF" transform="translate(0,0)"/>
<path d="" fill="#F0F0F0" transform="translate(0,0)"/>
</svg>
